<?plantuml 1.2026.1?><svg xmlns="http://www.w3.org/2000/svg" xmlns:xlink="http://www.w3.org/1999/xlink" contentStyleType="text/css" data-diagram-type="CLASS" height="1590px" preserveAspectRatio="none" style="width:1728px;height:1590px;background:#FFFFFF;" version="1.1" viewBox="0 0 1728 1590" width="1728px" zoomAndPan="magnify"><title>Diploma Defense Simulator - UML Class Diagram</title><defs/><g><g class="title" data-source-line="1"><text fill="#000000" font-family="sans-serif" font-size="14" font-weight="bold" lengthAdjust="spacing" textLength="325.9608" x="694.0696" y="23.0059">Diploma Defense Simulator - UML Class Diagram</text></g><!--class DefenseStage--><g class="entity" data-qualified-name="DefenseStage" data-source-line="6" id="ent0002"><rect fill="#F1F1F1" height="140.7996" rx="2.5" ry="2.5" style="stroke:#181818;stroke-width:0.5;" width="120.7176" x="902.34" y="1158.3999"/><ellipse cx="917.34" cy="1174.3999" fill="#EB937F" rx="11" ry="11" style="stroke:#181818;stroke-width:1;"/><path d="M916.1994,1175.4624 L917.5119,1175.4624 L917.5119,1175.5093 C917.5119,1175.9156 917.5275,1176.0718 917.6369,1176.2281 C917.8088,1176.4781 918.1056,1176.6499 918.4181,1176.6499 C918.6994,1176.6499 918.9963,1176.5093 919.1681,1176.2906 C919.2931,1176.1031 919.34,1175.9624 919.34,1175.5093 L919.34,1173.6656 C919.34,1173.3374 919.3244,1173.2281 919.2619,1173.0562 C919.1525,1172.7593 918.7931,1172.5093 918.4181,1172.5093 C918.1213,1172.5093 917.8556,1172.6499 917.6838,1172.8687 C917.5431,1173.0562 917.5119,1173.2281 917.5119,1173.6656 L917.5119,1173.7281 L916.1994,1173.7281 L916.1994,1171.5562 L920.0431,1171.5562 L920.0431,1172.3062 C920.0431,1172.6968 920.0744,1172.8843 920.1838,1173.0406 C920.3556,1173.2906 920.6525,1173.4624 920.965,1173.4624 C921.2619,1173.4624 921.5275,1173.3374 921.715,1173.1031 C921.8556,1172.9156 921.8869,1172.7749 921.8869,1172.3062 L921.8869,1169.8062 L914.1838,1169.8062 C913.7306,1169.8062 913.6056,1169.8218 913.4338,1169.9312 C913.1681,1170.1031 912.9963,1170.3687 912.9963,1170.6812 C912.9963,1170.9624 913.1213,1171.2281 913.3713,1171.3999 C913.5588,1171.5249 913.7463,1171.5562 914.1838,1171.5562 L914.3713,1171.5562 L914.3713,1177.6499 L914.1838,1177.6499 C913.7619,1177.6499 913.6056,1177.6812 913.4338,1177.7749 C913.1681,1177.9312 912.9963,1178.2124 912.9963,1178.5093 C912.9963,1179.0874 913.4025,1179.3999 914.1838,1179.3999 L922.2619,1179.3999 L922.2619,1176.8687 C922.2619,1176.4624 922.2306,1176.2906 922.1213,1176.1343 C921.9494,1175.8687 921.6681,1175.7124 921.34,1175.7124 C921.0588,1175.7124 920.7775,1175.8531 920.59,1176.0718 C920.4494,1176.2593 920.4181,1176.4156 920.4181,1176.8687 L920.4181,1177.6499 L916.1994,1177.6499 L916.1994,1175.4624 Z " fill="#000000"/><text fill="#000000" font-family="sans-serif" font-size="14" lengthAdjust="spacing" textLength="88.7176" x="931.34" y="1179.0059">DefenseStage</text><line style="stroke:#181818;stroke-width:0.5;" x1="903.34" x2="1022.0576" y1="1190.3999" y2="1190.3999"/><text fill="#000000" font-family="sans-serif" font-size="14" lengthAdjust="spacing" textLength="100.3516" x="908.34" y="1207.4059">PREPARATION</text><text fill="#000000" font-family="sans-serif" font-size="14" lengthAdjust="spacing" textLength="66.9057" x="908.34" y="1224.2058">REVISION</text><text fill="#000000" font-family="sans-serif" font-size="14" lengthAdjust="spacing" textLength="84.7977" x="908.34" y="1241.0057">REHEARSAL</text><text fill="#000000" font-family="sans-serif" font-size="14" lengthAdjust="spacing" textLength="66.1217" x="908.34" y="1257.8057">DEFENSE</text><text fill="#000000" font-family="sans-serif" font-size="14" lengthAdjust="spacing" textLength="96.4596" x="908.34" y="1274.6056">ATTESTATION</text><text fill="#000000" font-family="sans-serif" font-size="14" lengthAdjust="spacing" textLength="65.3377" x="908.34" y="1291.4055">FINISHED</text></g><!--class SessionService--><g class="entity" data-qualified-name="SessionService" data-source-line="15" id="ent0003"><rect fill="#F1F1F1" height="291.199" rx="2.5" ry="2.5" style="stroke:#181818;stroke-width:0.5;" width="673.9591" x="611.72" y="44.7999"/><ellipse cx="896.2128" cy="60.7999" fill="#ADD1B2" rx="11" ry="11" style="stroke:#181818;stroke-width:1;"/><path d="M891.2128,61.9562 C891.2128,64.4562 893.3534,66.2687 896.2753,66.2687 C897.5096,66.2687 898.6815,65.9718 899.4315,65.4562 C900.0409,65.0343 900.369,64.6124 900.369,64.2062 C900.369,63.7374 899.9471,63.3312 899.4471,63.3312 C899.2128,63.3312 898.994,63.4093 898.7909,63.6124 C898.3534,64.0499 898.3534,64.0499 898.1815,64.1437 C897.7284,64.3781 897.0878,64.5187 896.3221,64.5187 C894.3221,64.5187 893.0409,63.5031 893.0409,61.9249 L893.0409,60.8781 C893.0409,59.1749 894.2596,57.9718 895.9628,57.9718 C896.5409,57.9718 897.119,58.1124 897.5878,58.3624 C898.0565,58.6281 898.2284,58.8156 898.2909,59.1749 C898.4159,59.8468 898.6659,60.0968 899.1971,60.0968 C899.4784,60.0968 899.7596,59.9562 899.9471,59.7374 C900.0721,59.5656 900.119,59.3937 900.119,58.9562 L900.119,57.5968 C900.119,57.1749 900.1034,57.0343 899.9784,56.8624 C899.8065,56.6124 899.5253,56.4562 899.1971,56.4562 C898.8846,56.4562 898.6815,56.5656 898.4628,56.8312 C897.2909,56.3312 896.8534,56.2218 895.9003,56.2218 C893.2284,56.2218 891.2128,58.2374 891.2128,60.8624 L891.2128,61.9562 Z " fill="#000000"/><text fill="#000000" font-family="sans-serif" font-size="14" lengthAdjust="spacing" textLength="96.4736" x="916.7128" y="65.4059">SessionService</text><line style="stroke:#181818;stroke-width:0.5;" x1="612.72" x2="1284.6791" y1="76.7999" y2="76.7999"/><text fill="#000000" font-family="sans-serif" font-size="14" lengthAdjust="spacing" textLength="181.6633" x="617.72" y="93.8059">+ACTION_HELP: dict[str, str]</text><line style="stroke:#181818;stroke-width:1;" x1="612.72" x2="1284.6791" y1="101.5999" y2="101.5999"/><text fill="#000000" font-family="sans-serif" font-size="14" lengthAdjust="spacing" textLength="116.7175" x="617.72" y="118.6058">-__saves_dir: Path</text><text fill="#000000" font-family="sans-serif" font-size="14" lengthAdjust="spacing" textLength="224.6151" x="617.72" y="135.4057">-__process: DefenseProcess | None</text><text fill="#000000" font-family="sans-serif" font-size="14" lengthAdjust="spacing" textLength="109.4655" x="617.72" y="152.2057">-__slot: int | None</text><line style="stroke:#181818;stroke-width:1;" x1="612.72" x2="1284.6791" y1="159.9996" y2="159.9996"/><text fill="#000000" font-family="sans-serif" font-size="14" lengthAdjust="spacing" textLength="156.0153" x="617.72" y="177.0056">+has_save(slot: int): bool</text><text fill="#000000" font-family="sans-serif" font-size="14" lengthAdjust="spacing" textLength="661.9591" x="617.72" y="193.8055">+start_new(slot: int, student_name: str, student_intelligence: int, seed: int | None = None): DefenseProcess</text><text fill="#000000" font-family="sans-serif" font-size="14" lengthAdjust="spacing" textLength="198.7992" x="617.72" y="210.6054">+load(slot: int): DefenseProcess</text><text fill="#000000" font-family="sans-serif" font-size="14" lengthAdjust="spacing" textLength="83.6497" x="617.72" y="227.4054">+save(): Path</text><text fill="#000000" font-family="sans-serif" font-size="14" lengthAdjust="spacing" textLength="222.4311" x="617.72" y="244.2053">+get_status(): dict[str, int | str | bool]</text><text fill="#000000" font-family="sans-serif" font-size="14" lengthAdjust="spacing" textLength="200.3531" x="617.72" y="261.0052">+get_available_actions(): list[str]</text><text fill="#000000" font-family="sans-serif" font-size="14" lengthAdjust="spacing" textLength="241.611" x="617.72" y="277.8051">+get_action_label(action_code: str): str</text><text fill="#000000" font-family="sans-serif" font-size="14" lengthAdjust="spacing" textLength="238.503" x="617.72" y="294.6051">+get_action_help(action_code: str): str</text><text fill="#000000" font-family="sans-serif" font-size="14" lengthAdjust="spacing" textLength="250.935" x="617.72" y="311.405">+perform_action(action_code: str): None</text><text fill="#000000" font-family="sans-serif" font-size="14" lengthAdjust="spacing" textLength="117.8795" x="617.72" y="328.2049">+is_finished(): bool</text></g><!--class DefenseProcess--><g class="entity" data-qualified-name="DefenseProcess" data-source-line="34" id="ent0004"><rect fill="#F1F1F1" height="584.7977" rx="2.5" ry="2.5" style="stroke:#181818;stroke-width:0.5;" width="322.8407" x="788.28" y="412.9999"/><ellipse cx="894.0986" cy="428.9999" fill="#ADD1B2" rx="11" ry="11" style="stroke:#181818;stroke-width:1;"/><path d="M889.0986,430.1562 C889.0986,432.6562 891.2392,434.4687 894.1611,434.4687 C895.3954,434.4687 896.5673,434.1718 897.3173,433.6562 C897.9267,433.2343 898.2548,432.8124 898.2548,432.4062 C898.2548,431.9374 897.8329,431.5312 897.3329,431.5312 C897.0986,431.5312 896.8798,431.6093 896.6767,431.8124 C896.2392,432.2499 896.2392,432.2499 896.0673,432.3437 C895.6142,432.5781 894.9736,432.7187 894.2079,432.7187 C892.2079,432.7187 890.9267,431.7031 890.9267,430.1249 L890.9267,429.0781 C890.9267,427.3749 892.1454,426.1718 893.8486,426.1718 C894.4267,426.1718 895.0048,426.3124 895.4736,426.5624 C895.9423,426.8281 896.1142,427.0156 896.1767,427.3749 C896.3017,428.0468 896.5517,428.2968 897.0829,428.2968 C897.3642,428.2968 897.6454,428.1562 897.8329,427.9374 C897.9579,427.7656 898.0048,427.5937 898.0048,427.1562 L898.0048,425.7968 C898.0048,425.3749 897.9892,425.2343 897.8642,425.0624 C897.6923,424.8124 897.4111,424.6562 897.0829,424.6562 C896.7704,424.6562 896.5673,424.7656 896.3486,425.0312 C895.1767,424.5312 894.7392,424.4218 893.7861,424.4218 C891.1142,424.4218 889.0986,426.4374 889.0986,429.0624 L889.0986,430.1562 Z " fill="#000000"/><text fill="#000000" font-family="sans-serif" font-size="14" lengthAdjust="spacing" textLength="102.7036" x="914.5986" y="433.6059">DefenseProcess</text><line style="stroke:#181818;stroke-width:0.5;" x1="789.28" x2="1110.1207" y1="444.9999" y2="444.9999"/><text fill="#000000" font-family="sans-serif" font-size="14" lengthAdjust="spacing" textLength="129.1775" x="794.28" y="462.0059">+MAX_DAY: int = 25</text><text fill="#000000" font-family="sans-serif" font-size="14" lengthAdjust="spacing" textLength="150.1774" x="794.28" y="478.8058">+MAX_GRADE: int = 10</text><text fill="#000000" font-family="sans-serif" font-size="14" lengthAdjust="spacing" textLength="198.0152" x="794.28" y="495.6057">+ACTION_LABELS: dict[str, str]</text><line style="stroke:#181818;stroke-width:1;" x1="789.28" x2="1110.1207" y1="503.3997" y2="503.3997"/><text fill="#000000" font-family="sans-serif" font-size="14" lengthAdjust="spacing" textLength="122.1915" x="794.28" y="520.4057">-__student: Student</text><text fill="#000000" font-family="sans-serif" font-size="14" lengthAdjust="spacing" textLength="221.7311" x="794.28" y="537.2056">-__diploma_project: DiplomaProject</text><text fill="#000000" font-family="sans-serif" font-size="14" lengthAdjust="spacing" textLength="183.6512" x="794.28" y="554.0055">-__presentation: Presentation</text><text fill="#000000" font-family="sans-serif" font-size="14" lengthAdjust="spacing" textLength="276.9608" x="794.28" y="570.8054">-__scientific_supervisor: ScientificSupervisor</text><text fill="#000000" font-family="sans-serif" font-size="14" lengthAdjust="spacing" textLength="178.9053" x="794.28" y="587.6054">-__commission: Commission</text><text fill="#000000" font-family="sans-serif" font-size="14" lengthAdjust="spacing" textLength="77.0417" x="794.28" y="604.4053">-__today: int</text><text fill="#000000" font-family="sans-serif" font-size="14" lengthAdjust="spacing" textLength="150.9754" x="794.28" y="621.2052">-__stage: DefenseStage</text><text fill="#000000" font-family="sans-serif" font-size="14" lengthAdjust="spacing" textLength="118.0335" x="794.28" y="638.0051">-__seed: int | None</text><text fill="#000000" font-family="sans-serif" font-size="14" lengthAdjust="spacing" textLength="180.5152" x="794.28" y="654.8051">-__revision_passed: list[bool]</text><text fill="#000000" font-family="sans-serif" font-size="14" lengthAdjust="spacing" textLength="157.2053" x="794.28" y="671.605">-__defense_passed: bool</text><text fill="#000000" font-family="sans-serif" font-size="14" lengthAdjust="spacing" textLength="112.0555" x="794.28" y="688.4049">-__final_grade: int</text><text fill="#000000" font-family="sans-serif" font-size="14" lengthAdjust="spacing" textLength="77.0277" x="794.28" y="705.2048">-__score: int</text><line style="stroke:#181818;stroke-width:1;" x1="789.28" x2="1110.1207" y1="712.9988" y2="712.9988"/><text fill="#000000" font-family="sans-serif" font-size="14" lengthAdjust="spacing" textLength="241.611" x="794.28" y="730.0048">+get_action_label(action_code: str): str</text><text fill="#000000" font-family="sans-serif" font-size="14" lengthAdjust="spacing" textLength="200.3531" x="794.28" y="746.8047">+get_available_actions(): list[str]</text><text fill="#000000" font-family="sans-serif" font-size="14" lengthAdjust="spacing" textLength="117.8795" x="794.28" y="763.6046">+is_finished(): bool</text><text fill="#000000" font-family="sans-serif" font-size="14" lengthAdjust="spacing" textLength="222.4311" x="794.28" y="780.4046">+get_status(): dict[str, int | str | bool]</text><text fill="#000000" font-family="sans-serif" font-size="14" lengthAdjust="spacing" textLength="250.935" x="794.28" y="797.2045">+perform_action(action_code: str): None</text><text fill="#000000" font-family="sans-serif" font-size="14" lengthAdjust="spacing" textLength="135.0154" x="794.28" y="814.0044">+change_day(): None</text><text fill="#000000" font-family="sans-serif" font-size="14" lengthAdjust="spacing" textLength="156.7853" x="794.28" y="830.8043">+to_dict(): dict[str, object]</text><text fill="#000000" font-family="sans-serif" font-size="14" lengthAdjust="spacing" textLength="310.8407" x="794.28" y="847.6043">+from_dict(data: dict[str, object]): DefenseProcess</text><line style="stroke:#181818;stroke-width:1;" x1="789.28" x2="1110.1207" y1="855.3982" y2="855.3982"/><text fill="#000000" font-family="sans-serif" font-size="14" lengthAdjust="spacing" textLength="160.2713" x="794.28" y="872.4042">-_work_on_thesis(): None</text><text fill="#000000" font-family="sans-serif" font-size="14" lengthAdjust="spacing" textLength="154.8254" x="794.28" y="889.2041">-_prepare_slides(): None</text><text fill="#000000" font-family="sans-serif" font-size="14" lengthAdjust="spacing" textLength="86.3517" x="794.28" y="906.004">-_rest(): None</text><text fill="#000000" font-family="sans-serif" font-size="14" lengthAdjust="spacing" textLength="161.0553" x="794.28" y="922.804">-_send_to_review(): None</text><text fill="#000000" font-family="sans-serif" font-size="14" lengthAdjust="spacing" textLength="199.1772" x="794.28" y="939.6039">-_submit_for_inspection(): None</text><text fill="#000000" font-family="sans-serif" font-size="14" lengthAdjust="spacing" textLength="175.8533" x="794.28" y="956.4038">-_rehearse_defense(): None</text><text fill="#000000" font-family="sans-serif" font-size="14" lengthAdjust="spacing" textLength="147.8394" x="794.28" y="973.2037">-_start_defense(): None</text><text fill="#000000" font-family="sans-serif" font-size="14" lengthAdjust="spacing" textLength="183.6232" x="794.28" y="990.0037">-_perform_attestation(): None</text></g><!--class Student--><g class="entity" data-qualified-name="Student" data-source-line="71" id="ent0005"><rect fill="#F1F1F1" height="307.9989" rx="2.5" ry="2.5" style="stroke:#181818;stroke-width:0.5;" width="303.3947" x="7" y="1074.7999"/><ellipse cx="130.3185" cy="1090.7999" fill="#ADD1B2" rx="11" ry="11" style="stroke:#181818;stroke-width:1;"/><path d="M125.3185,1091.9562 C125.3185,1094.4562 127.4591,1096.2687 130.381,1096.2687 C131.6153,1096.2687 132.7872,1095.9718 133.5372,1095.4562 C134.1466,1095.0343 134.4747,1094.6124 134.4747,1094.2062 C134.4747,1093.7374 134.0528,1093.3312 133.5528,1093.3312 C133.3185,1093.3312 133.0997,1093.4093 132.8966,1093.6124 C132.4591,1094.0499 132.4591,1094.0499 132.2872,1094.1437 C131.8341,1094.3781 131.1935,1094.5187 130.4278,1094.5187 C128.4278,1094.5187 127.1466,1093.5031 127.1466,1091.9249 L127.1466,1090.8781 C127.1466,1089.1749 128.3653,1087.9718 130.0685,1087.9718 C130.6466,1087.9718 131.2247,1088.1124 131.6935,1088.3624 C132.1622,1088.6281 132.3341,1088.8156 132.3966,1089.1749 C132.5216,1089.8468 132.7716,1090.0968 133.3028,1090.0968 C133.5841,1090.0968 133.8653,1089.9562 134.0528,1089.7374 C134.1778,1089.5656 134.2247,1089.3937 134.2247,1088.9562 L134.2247,1087.5968 C134.2247,1087.1749 134.2091,1087.0343 134.0841,1086.8624 C133.9122,1086.6124 133.631,1086.4562 133.3028,1086.4562 C132.9903,1086.4562 132.7872,1086.5656 132.5685,1086.8312 C131.3966,1086.3312 130.9591,1086.2218 130.006,1086.2218 C127.3341,1086.2218 125.3185,1088.2374 125.3185,1090.8624 L125.3185,1091.9562 Z " fill="#000000"/><text fill="#000000" font-family="sans-serif" font-size="14" lengthAdjust="spacing" textLength="48.2578" x="150.8185" y="1095.4059">Student</text><line style="stroke:#181818;stroke-width:0.5;" x1="8" x2="309.3947" y1="1106.7999" y2="1106.7999"/><text fill="#000000" font-family="sans-serif" font-size="14" lengthAdjust="spacing" textLength="150.1634" x="13" y="1123.8059">+MIN_STAMINA: int = 0</text><text fill="#000000" font-family="sans-serif" font-size="14" lengthAdjust="spacing" textLength="170.4073" x="13" y="1140.6058">+MAX_STAMINA: int = 100</text><text fill="#000000" font-family="sans-serif" font-size="14" lengthAdjust="spacing" textLength="199.9752" x="13" y="1157.4057">+MAX_ANSWER_SKILL: int = 3</text><text fill="#000000" font-family="sans-serif" font-size="14" lengthAdjust="spacing" textLength="291.3947" x="13" y="1174.2057">+ALLOWED_INTELLIGENCE: tuple[int, int, int]</text><line style="stroke:#181818;stroke-width:1;" x1="8" x2="309.3947" y1="1181.9996" y2="1181.9996"/><text fill="#000000" font-family="sans-serif" font-size="14" lengthAdjust="spacing" textLength="78.5817" x="13" y="1199.0056">-__name: str</text><text fill="#000000" font-family="sans-serif" font-size="14" lengthAdjust="spacing" textLength="112.8255" x="13" y="1215.8055">-__intelligence: int</text><text fill="#000000" font-family="sans-serif" font-size="14" lengthAdjust="spacing" textLength="91.8116" x="13" y="1232.6054">-__stamina: int</text><text fill="#000000" font-family="sans-serif" font-size="14" lengthAdjust="spacing" textLength="119.0275" x="13" y="1249.4054">-__answer_skill: int</text><line style="stroke:#181818;stroke-width:1;" x1="8" x2="309.3947" y1="1257.1993" y2="1257.1993"/><text fill="#000000" font-family="sans-serif" font-size="14" lengthAdjust="spacing" textLength="103.0956" x="13" y="1274.2053">+get_name(): str</text><text fill="#000000" font-family="sans-serif" font-size="14" lengthAdjust="spacing" textLength="137.3394" x="13" y="1291.0052">+get_intelligence(): int</text><text fill="#000000" font-family="sans-serif" font-size="14" lengthAdjust="spacing" textLength="161.4473" x="13" y="1307.8051">+get_str_intelligence(): str</text><text fill="#000000" font-family="sans-serif" font-size="14" lengthAdjust="spacing" textLength="116.3255" x="13" y="1324.6051">+get_stamina(): int</text><text fill="#000000" font-family="sans-serif" font-size="14" lengthAdjust="spacing" textLength="143.5414" x="13" y="1341.405">+get_answer_skill(): int</text><text fill="#000000" font-family="sans-serif" font-size="14" lengthAdjust="spacing" textLength="195.7052" x="13" y="1358.2049">+change_stamina(delta: int): int</text><text fill="#000000" font-family="sans-serif" font-size="14" lengthAdjust="spacing" textLength="222.9211" x="13" y="1375.0048">+change_answer_skill(delta: int): int</text></g><!--class DiplomaProject--><g class="entity" data-qualified-name="DiplomaProject" data-source-line="91" id="ent0006"><rect fill="#F1F1F1" height="274.399" rx="2.5" ry="2.5" style="stroke:#181818;stroke-width:0.5;" width="221.7051" x="345.84" y="1091.5999"/><ellipse cx="404.9897" cy="1107.5999" fill="#ADD1B2" rx="11" ry="11" style="stroke:#181818;stroke-width:1;"/><path d="M399.9897,1108.7562 C399.9897,1111.2562 402.1304,1113.0687 405.0522,1113.0687 C406.2866,1113.0687 407.4585,1112.7718 408.2085,1112.2562 C408.8179,1111.8343 409.146,1111.4124 409.146,1111.0062 C409.146,1110.5374 408.7241,1110.1312 408.2241,1110.1312 C407.9897,1110.1312 407.771,1110.2093 407.5679,1110.4124 C407.1304,1110.8499 407.1304,1110.8499 406.9585,1110.9437 C406.5054,1111.1781 405.8647,1111.3187 405.0991,1111.3187 C403.0991,1111.3187 401.8179,1110.3031 401.8179,1108.7249 L401.8179,1107.6781 C401.8179,1105.9749 403.0366,1104.7718 404.7397,1104.7718 C405.3179,1104.7718 405.896,1104.9124 406.3647,1105.1624 C406.8335,1105.4281 407.0054,1105.6156 407.0679,1105.9749 C407.1929,1106.6468 407.4429,1106.8968 407.9741,1106.8968 C408.2554,1106.8968 408.5366,1106.7562 408.7241,1106.5374 C408.8491,1106.3656 408.896,1106.1937 408.896,1105.7562 L408.896,1104.3968 C408.896,1103.9749 408.8804,1103.8343 408.7554,1103.6624 C408.5835,1103.4124 408.3022,1103.2562 407.9741,1103.2562 C407.6616,1103.2562 407.4585,1103.3656 407.2397,1103.6312 C406.0679,1103.1312 405.6304,1103.0218 404.6772,1103.0218 C402.0054,1103.0218 399.9897,1105.0374 399.9897,1107.6624 L399.9897,1108.7562 Z " fill="#000000"/><text fill="#000000" font-family="sans-serif" font-size="14" lengthAdjust="spacing" textLength="94.9056" x="425.4897" y="1112.2059">DiplomaProject</text><line style="stroke:#181818;stroke-width:0.5;" x1="346.84" x2="566.5451" y1="1123.5999" y2="1123.5999"/><text fill="#000000" font-family="sans-serif" font-size="14" lengthAdjust="spacing" textLength="115.9335" x="351.84" y="1140.6059">+MIN_PCT: int = 0</text><text fill="#000000" font-family="sans-serif" font-size="14" lengthAdjust="spacing" textLength="136.1774" x="351.84" y="1157.4058">+MAX_PCT: int = 100</text><text fill="#000000" font-family="sans-serif" font-size="14" lengthAdjust="spacing" textLength="147.8394" x="351.84" y="1174.2057">+MIN_QUALITY: int = 0</text><text fill="#000000" font-family="sans-serif" font-size="14" lengthAdjust="spacing" textLength="168.0833" x="351.84" y="1191.0057">+MAX_QUALITY: int = 100</text><line style="stroke:#181818;stroke-width:1;" x1="346.84" x2="566.5451" y1="1198.7996" y2="1198.7996"/><text fill="#000000" font-family="sans-serif" font-size="14" lengthAdjust="spacing" textLength="132.2714" x="351.84" y="1215.8056">-__pct_complition: int</text><text fill="#000000" font-family="sans-serif" font-size="14" lengthAdjust="spacing" textLength="83.2576" x="351.84" y="1232.6055">-__quality: int</text><text fill="#000000" font-family="sans-serif" font-size="14" lengthAdjust="spacing" textLength="110.4875" x="351.84" y="1249.4054">-__theme: Theme</text><line style="stroke:#181818;stroke-width:1;" x1="346.84" x2="566.5451" y1="1257.1994" y2="1257.1994"/><text fill="#000000" font-family="sans-serif" font-size="14" lengthAdjust="spacing" textLength="156.7853" x="351.84" y="1274.2054">+get_pct_complition(): int</text><text fill="#000000" font-family="sans-serif" font-size="14" lengthAdjust="spacing" textLength="107.7715" x="351.84" y="1291.0053">+get_quality(): int</text><text fill="#000000" font-family="sans-serif" font-size="14" lengthAdjust="spacing" textLength="149.7854" x="351.84" y="1307.8052">+get_theme_name(): str</text><text fill="#000000" font-family="sans-serif" font-size="14" lengthAdjust="spacing" textLength="180.1232" x="351.84" y="1324.6051">+get_theme_complexity(): int</text><text fill="#000000" font-family="sans-serif" font-size="14" lengthAdjust="spacing" textLength="209.7051" x="351.84" y="1341.4051">+change_complition(delta: int): int</text><text fill="#000000" font-family="sans-serif" font-size="14" lengthAdjust="spacing" textLength="187.1512" x="351.84" y="1358.205">+change_quality(delta: int): int</text></g><!--class Presentation--><g class="entity" data-qualified-name="Presentation" data-source-line="109" id="ent0007"><rect fill="#F1F1F1" height="139.9996" rx="2.5" ry="2.5" style="stroke:#181818;stroke-width:0.5;" width="221.7051" x="1057.84" y="1158.7999"/><ellipse cx="1125.1447" cy="1174.7999" fill="#ADD1B2" rx="11" ry="11" style="stroke:#181818;stroke-width:1;"/><path d="M1120.1447,1175.9562 C1120.1447,1178.4562 1122.2853,1180.2687 1125.2072,1180.2687 C1126.4416,1180.2687 1127.6135,1179.9718 1128.3635,1179.4562 C1128.9728,1179.0343 1129.301,1178.6124 1129.301,1178.2062 C1129.301,1177.7374 1128.8791,1177.3312 1128.3791,1177.3312 C1128.1447,1177.3312 1127.926,1177.4093 1127.7228,1177.6124 C1127.2853,1178.0499 1127.2853,1178.0499 1127.1135,1178.1437 C1126.6603,1178.3781 1126.0197,1178.5187 1125.2541,1178.5187 C1123.2541,1178.5187 1121.9728,1177.5031 1121.9728,1175.9249 L1121.9728,1174.8781 C1121.9728,1173.1749 1123.1916,1171.9718 1124.8947,1171.9718 C1125.4728,1171.9718 1126.051,1172.1124 1126.5197,1172.3624 C1126.9885,1172.6281 1127.1603,1172.8156 1127.2228,1173.1749 C1127.3478,1173.8468 1127.5978,1174.0968 1128.1291,1174.0968 C1128.4103,1174.0968 1128.6916,1173.9562 1128.8791,1173.7374 C1129.0041,1173.5656 1129.051,1173.3937 1129.051,1172.9562 L1129.051,1171.5968 C1129.051,1171.1749 1129.0353,1171.0343 1128.9103,1170.8624 C1128.7385,1170.6124 1128.4572,1170.4562 1128.1291,1170.4562 C1127.8166,1170.4562 1127.6135,1170.5656 1127.3947,1170.8312 C1126.2228,1170.3312 1125.7853,1170.2218 1124.8322,1170.2218 C1122.1603,1170.2218 1120.1447,1172.2374 1120.1447,1174.8624 L1120.1447,1175.9562 Z " fill="#000000"/><text fill="#000000" font-family="sans-serif" font-size="14" lengthAdjust="spacing" textLength="78.5957" x="1145.6447" y="1179.4059">Presentation</text><line style="stroke:#181818;stroke-width:0.5;" x1="1058.84" x2="1278.5451" y1="1190.7999" y2="1190.7999"/><text fill="#000000" font-family="sans-serif" font-size="14" lengthAdjust="spacing" textLength="115.9335" x="1063.84" y="1207.8059">+MIN_PCT: int = 0</text><text fill="#000000" font-family="sans-serif" font-size="14" lengthAdjust="spacing" textLength="136.1774" x="1063.84" y="1224.6058">+MAX_PCT: int = 100</text><line style="stroke:#181818;stroke-width:1;" x1="1058.84" x2="1278.5451" y1="1232.3998" y2="1232.3998"/><text fill="#000000" font-family="sans-serif" font-size="14" lengthAdjust="spacing" textLength="132.2714" x="1063.84" y="1249.4057">-__pct_complition: int</text><line style="stroke:#181818;stroke-width:1;" x1="1058.84" x2="1278.5451" y1="1257.1997" y2="1257.1997"/><text fill="#000000" font-family="sans-serif" font-size="14" lengthAdjust="spacing" textLength="156.7853" x="1063.84" y="1274.2057">+get_pct_complition(): int</text><text fill="#000000" font-family="sans-serif" font-size="14" lengthAdjust="spacing" textLength="209.7051" x="1063.84" y="1291.0056">+change_complition(delta: int): int</text></g><!--class ScientificSupervisor--><g class="entity" data-qualified-name="ScientificSupervisor" data-source-line="119" id="ent0008"><rect fill="#F1F1F1" height="190.3994" rx="2.5" ry="2.5" style="stroke:#181818;stroke-width:0.5;" width="303.3947" x="1315" y="1133.5999"/><ellipse cx="1400.9876" cy="1149.5999" fill="#ADD1B2" rx="11" ry="11" style="stroke:#181818;stroke-width:1;"/><path d="M1395.9876,1150.7562 C1395.9876,1153.2562 1398.1282,1155.0687 1401.0501,1155.0687 C1402.2845,1155.0687 1403.4564,1154.7718 1404.2064,1154.2562 C1404.8157,1153.8343 1405.1439,1153.4124 1405.1439,1153.0062 C1405.1439,1152.5374 1404.722,1152.1312 1404.222,1152.1312 C1403.9876,1152.1312 1403.7689,1152.2093 1403.5657,1152.4124 C1403.1282,1152.8499 1403.1282,1152.8499 1402.9564,1152.9437 C1402.5032,1153.1781 1401.8626,1153.3187 1401.097,1153.3187 C1399.097,1153.3187 1397.8157,1152.3031 1397.8157,1150.7249 L1397.8157,1149.6781 C1397.8157,1147.9749 1399.0345,1146.7718 1400.7376,1146.7718 C1401.3157,1146.7718 1401.8939,1146.9124 1402.3626,1147.1624 C1402.8314,1147.4281 1403.0032,1147.6156 1403.0657,1147.9749 C1403.1907,1148.6468 1403.4407,1148.8968 1403.972,1148.8968 C1404.2532,1148.8968 1404.5345,1148.7562 1404.722,1148.5374 C1404.847,1148.3656 1404.8939,1148.1937 1404.8939,1147.7562 L1404.8939,1146.3968 C1404.8939,1145.9749 1404.8782,1145.8343 1404.7532,1145.6624 C1404.5814,1145.4124 1404.3001,1145.2562 1403.972,1145.2562 C1403.6595,1145.2562 1403.4564,1145.3656 1403.2376,1145.6312 C1402.0657,1145.1312 1401.6282,1145.0218 1400.6751,1145.0218 C1398.0032,1145.0218 1395.9876,1147.0374 1395.9876,1149.6624 L1395.9876,1150.7562 Z " fill="#000000"/><text fill="#000000" font-family="sans-serif" font-size="14" lengthAdjust="spacing" textLength="122.9195" x="1421.4876" y="1154.2059">ScientificSupervisor</text><line style="stroke:#181818;stroke-width:0.5;" x1="1316" x2="1617.3947" y1="1165.5999" y2="1165.5999"/><text fill="#000000" font-family="sans-serif" font-size="14" lengthAdjust="spacing" textLength="291.3947" x="1321" y="1182.6059">+ALLOWED_INTELLIGENCE: tuple[int, int, int]</text><text fill="#000000" font-family="sans-serif" font-size="14" lengthAdjust="spacing" textLength="253.2869" x="1321" y="1199.4058">+ALLOWED_LOYALTY: tuple[int, int, int]</text><line style="stroke:#181818;stroke-width:1;" x1="1316" x2="1617.3947" y1="1207.1998" y2="1207.1998"/><text fill="#000000" font-family="sans-serif" font-size="14" lengthAdjust="spacing" textLength="78.5817" x="1321" y="1224.2057">-__name: str</text><text fill="#000000" font-family="sans-serif" font-size="14" lengthAdjust="spacing" textLength="112.8255" x="1321" y="1241.0057">-__intelligence: int</text><text fill="#000000" font-family="sans-serif" font-size="14" lengthAdjust="spacing" textLength="82.4736" x="1321" y="1257.8056">-__loyalty: int</text><line style="stroke:#181818;stroke-width:1;" x1="1316" x2="1617.3947" y1="1265.5996" y2="1265.5996"/><text fill="#000000" font-family="sans-serif" font-size="14" lengthAdjust="spacing" textLength="79.7577" x="1321" y="1282.6055">+get_name()</text><text fill="#000000" font-family="sans-serif" font-size="14" lengthAdjust="spacing" textLength="114.7715" x="1321" y="1299.4054">+get_intelligence()</text><text fill="#000000" font-family="sans-serif" font-size="14" lengthAdjust="spacing" textLength="84.4196" x="1321" y="1316.2054">+get_loyalty()</text></g><!--class Commission--><g class="entity" data-qualified-name="Commission" data-source-line="132" id="ent0009"><rect fill="#F1F1F1" height="106.3998" rx="2.5" ry="2.5" style="stroke:#181818;stroke-width:0.5;" width="265.2869" x="602.05" y="1175.5999"/><ellipse cx="691.9436" cy="1191.5999" fill="#ADD1B2" rx="11" ry="11" style="stroke:#181818;stroke-width:1;"/><path d="M686.9436,1192.7562 C686.9436,1195.2562 689.0843,1197.0687 692.0061,1197.0687 C693.2405,1197.0687 694.4124,1196.7718 695.1624,1196.2562 C695.7718,1195.8343 696.0999,1195.4124 696.0999,1195.0062 C696.0999,1194.5374 695.678,1194.1312 695.178,1194.1312 C694.9436,1194.1312 694.7249,1194.2093 694.5218,1194.4124 C694.0843,1194.8499 694.0843,1194.8499 693.9124,1194.9437 C693.4593,1195.1781 692.8186,1195.3187 692.053,1195.3187 C690.053,1195.3187 688.7718,1194.3031 688.7718,1192.7249 L688.7718,1191.6781 C688.7718,1189.9749 689.9905,1188.7718 691.6936,1188.7718 C692.2718,1188.7718 692.8499,1188.9124 693.3186,1189.1624 C693.7874,1189.4281 693.9593,1189.6156 694.0218,1189.9749 C694.1468,1190.6468 694.3968,1190.8968 694.928,1190.8968 C695.2093,1190.8968 695.4905,1190.7562 695.678,1190.5374 C695.803,1190.3656 695.8499,1190.1937 695.8499,1189.7562 L695.8499,1188.3968 C695.8499,1187.9749 695.8343,1187.8343 695.7093,1187.6624 C695.5374,1187.4124 695.2561,1187.2562 694.928,1187.2562 C694.6155,1187.2562 694.4124,1187.3656 694.1936,1187.6312 C693.0218,1187.1312 692.5843,1187.0218 691.6311,1187.0218 C688.9593,1187.0218 686.9436,1189.0374 686.9436,1191.6624 L686.9436,1192.7562 Z " fill="#000000"/><text fill="#000000" font-family="sans-serif" font-size="14" lengthAdjust="spacing" textLength="76.9997" x="712.4436" y="1196.2059">Commission</text><line style="stroke:#181818;stroke-width:0.5;" x1="603.05" x2="866.3369" y1="1207.5999" y2="1207.5999"/><text fill="#000000" font-family="sans-serif" font-size="14" lengthAdjust="spacing" textLength="253.2869" x="608.05" y="1224.6059">+ALLOWED_LOYALTY: tuple[int, int, int]</text><line style="stroke:#181818;stroke-width:1;" x1="603.05" x2="866.3369" y1="1232.3999" y2="1232.3999"/><text fill="#000000" font-family="sans-serif" font-size="14" lengthAdjust="spacing" textLength="82.4736" x="608.05" y="1249.4058">-__loyalty: int</text><line style="stroke:#181818;stroke-width:1;" x1="603.05" x2="866.3369" y1="1257.1998" y2="1257.1998"/><text fill="#000000" font-family="sans-serif" font-size="14" lengthAdjust="spacing" textLength="84.4196" x="608.05" y="1274.2057">+get_loyalty()</text></g><!--class Theme--><g class="entity" data-qualified-name="Theme" data-source-line="140" id="ent0010"><rect fill="#F1F1F1" height="139.9996" rx="2.5" ry="2.5" style="stroke:#181818;stroke-width:0.5;" width="283.1649" x="922.11" y="1443.7999"/><ellipse cx="1037.6585" cy="1459.7999" fill="#ADD1B2" rx="11" ry="11" style="stroke:#181818;stroke-width:1;"/><path d="M1032.6585,1460.9562 C1032.6585,1463.4562 1034.7991,1465.2687 1037.721,1465.2687 C1038.9554,1465.2687 1040.1273,1464.9718 1040.8773,1464.4562 C1041.4866,1464.0343 1041.8148,1463.6124 1041.8148,1463.2062 C1041.8148,1462.7374 1041.3929,1462.3312 1040.8929,1462.3312 C1040.6585,1462.3312 1040.4398,1462.4093 1040.2366,1462.6124 C1039.7991,1463.0499 1039.7991,1463.0499 1039.6273,1463.1437 C1039.1741,1463.3781 1038.5335,1463.5187 1037.7679,1463.5187 C1035.7679,1463.5187 1034.4866,1462.5031 1034.4866,1460.9249 L1034.4866,1459.8781 C1034.4866,1458.1749 1035.7054,1456.9718 1037.4085,1456.9718 C1037.9866,1456.9718 1038.5648,1457.1124 1039.0335,1457.3624 C1039.5023,1457.6281 1039.6741,1457.8156 1039.7366,1458.1749 C1039.8616,1458.8468 1040.1116,1459.0968 1040.6429,1459.0968 C1040.9241,1459.0968 1041.2054,1458.9562 1041.3929,1458.7374 C1041.5179,1458.5656 1041.5648,1458.3937 1041.5648,1457.9562 L1041.5648,1456.5968 C1041.5648,1456.1749 1041.5491,1456.0343 1041.4241,1455.8624 C1041.2523,1455.6124 1040.971,1455.4562 1040.6429,1455.4562 C1040.3304,1455.4562 1040.1273,1455.5656 1039.9085,1455.8312 C1038.7366,1455.3312 1038.2991,1455.2218 1037.346,1455.2218 C1034.6741,1455.2218 1032.6585,1457.2374 1032.6585,1459.8624 L1032.6585,1460.9562 Z " fill="#000000"/><text fill="#000000" font-family="sans-serif" font-size="14" lengthAdjust="spacing" textLength="43.5678" x="1058.1585" y="1464.4059">Theme</text><line style="stroke:#181818;stroke-width:0.5;" x1="923.11" x2="1204.2749" y1="1475.7999" y2="1475.7999"/><text fill="#000000" font-family="sans-serif" font-size="14" lengthAdjust="spacing" textLength="271.1649" x="928.11" y="1492.8059">+ALLOWED_COMLEXITY: tuple[int, int, int]</text><line style="stroke:#181818;stroke-width:1;" x1="923.11" x2="1204.2749" y1="1500.5999" y2="1500.5999"/><text fill="#000000" font-family="sans-serif" font-size="14" lengthAdjust="spacing" textLength="78.5817" x="928.11" y="1517.6058">-__name: str</text><text fill="#000000" font-family="sans-serif" font-size="14" lengthAdjust="spacing" textLength="108.9195" x="928.11" y="1534.4057">-__complexity: int</text><line style="stroke:#181818;stroke-width:1;" x1="923.11" x2="1204.2749" y1="1542.1997" y2="1542.1997"/><text fill="#000000" font-family="sans-serif" font-size="14" lengthAdjust="spacing" textLength="103.0956" x="928.11" y="1559.2057">+get_name(): str</text><text fill="#000000" font-family="sans-serif" font-size="14" lengthAdjust="spacing" textLength="133.4334" x="928.11" y="1576.0056">+get_complexity(): int</text></g><!--reverse link SessionService to DefenseProcess--><g class="link" data-entity-1="ent0003" data-entity-2="ent0004" data-link-type="aggregation" data-source-line="150" id="lnk11"><path codeLine="150" d="M901.5337,347.78 C899.4437,357.86 900.08,356.1699 898.7,365.9999 C896.55,381.2999 895.37,396.9799 894.97,412.8099" fill="none" id="SessionService-backto-DefenseProcess" style="stroke:#181818;stroke-width:1;"/><polygon fill="none" points="903.97,336.0299,898.8352,341.0929,901.5337,347.78,906.6686,342.7171,903.97,336.0299" style="stroke:#181818;stroke-width:1;"/><text fill="#000000" font-family="sans-serif" font-size="13" lengthAdjust="spacing" textLength="53.4691" x="899.7" y="379.0769">manages</text><text fill="#000000" font-family="sans-serif" font-size="13" lengthAdjust="spacing" textLength="21.684" x="872.2464" y="401.9238">0..1</text></g><!--link SessionService to DefenseProcess--><g class="link" data-entity-1="ent0003" data-entity-2="ent0004" data-link-type="dependency" data-source-line="167" id="lnk25"><path codeLine="167" d="M956.74,336.1999 C957.12,346.2799 957.45,356.2899 957.7,365.9999 C958.09,381.2799 958.2821,390.94 958.3821,406.75" fill="none" id="SessionService-to-DefenseProcess" style="stroke:#181818;stroke-width:1;stroke-dasharray:7,7;"/><polygon fill="#181818" points="958.42,412.7499,962.363,403.7248,958.3884,407.75,954.3632,403.7754,958.42,412.7499" style="stroke:#181818;stroke-width:1;"/><text fill="#000000" font-family="sans-serif" font-size="13" lengthAdjust="spacing" textLength="68.6401" x="958.91" y="379.0769">loads/saves</text></g><!--link DefenseProcess to DefenseStage--><g class="link" data-entity-1="ent0004" data-entity-2="ent0002" data-link-type="dependency" data-source-line="151" id="lnk12"><path codeLine="151" d="M956.97,997.9699 C958.46,1057.8499 959.7508,1109.5218 960.8108,1152.1218" fill="none" id="DefenseProcess-to-DefenseStage" style="stroke:#181818;stroke-width:1;"/><polygon fill="#181818" points="960.96,1158.1199,964.7349,1149.0232,960.8356,1153.1215,956.7374,1149.2222,960.96,1158.1199" style="stroke:#181818;stroke-width:1;"/><text fill="#000000" font-family="sans-serif" font-size="13" lengthAdjust="spacing" textLength="75.8681" x="959.12" y="1040.8769">current stage</text></g><!--reverse link DefenseProcess to Student--><g class="link" data-entity-1="ent0004" data-entity-2="ent0005" data-link-type="composition" data-source-line="153" id="lnk13"><path codeLine="153" d="M778.9607,985.6064 C770.5107,992.7964 770.85,991.7199 761.7,997.7999 C721.01,1024.8599 372.6,1053.3499 328.7,1074.7999 C322.63,1077.7599 316.62,1081.0099 310.69,1084.4799" fill="none" id="DefenseProcess-backto-Student" style="stroke:#181818;stroke-width:1;"/><polygon fill="#181818" points="788.1,977.8299,780.9382,978.6717,778.9607,985.6064,786.1225,984.7646,788.1,977.8299" style="stroke:#181818;stroke-width:1;"/></g><!--reverse link DefenseProcess to DiplomaProject--><g class="link" data-entity-1="ent0004" data-entity-2="ent0006" data-link-type="composition" data-source-line="154" id="lnk14"><path codeLine="154" d="M779.6342,981.764 C771.1342,990.424 770.76,990.0999 761.7,997.7999 C696.31,1053.3399 653.39,1023.4199 584.7,1074.7999 C577.9,1079.8799 571.24,1085.3899 564.74,1091.2099" fill="none" id="DefenseProcess-backto-DiplomaProject" style="stroke:#181818;stroke-width:1;"/><polygon fill="#181818" points="788.04,973.1999,780.9824,974.68,779.6342,981.764,786.6918,980.2839,788.04,973.1999" style="stroke:#181818;stroke-width:1;"/></g><!--reverse link DefenseProcess to Presentation--><g class="link" data-entity-1="ent0004" data-entity-2="ent0007" data-link-type="composition" data-source-line="155" id="lnk15"><path codeLine="155" d="M1076.8074,1009.0335 C1102.0574,1069.1435 1121.73,1115.9699 1139.64,1158.6099" fill="none" id="DefenseProcess-backto-Presentation" style="stroke:#181818;stroke-width:1;"/><polygon fill="#181818" points="1072.16,997.9699,1070.7958,1005.0508,1076.8074,1009.0335,1078.1715,1001.9526,1072.16,997.9699" style="stroke:#181818;stroke-width:1;"/></g><!--reverse link DefenseProcess to ScientificSupervisor--><g class="link" data-entity-1="ent0004" data-entity-2="ent0008" data-link-type="composition" data-source-line="156" id="lnk16"><path codeLine="156" d="M1119.7129,981.0924 C1128.1929,990.0024 1128.68,989.8199 1137.7,997.7999 C1196.5,1049.8299 1231.54,1030.9899 1296.7,1074.7999 C1322.24,1091.9699 1347.89,1112.7699 1371.25,1133.4199" fill="none" id="DefenseProcess-backto-ScientificSupervisor" style="stroke:#181818;stroke-width:1;"/><polygon fill="#181818" points="1111.44,972.3999,1112.679,979.5038,1119.7129,981.0924,1118.4739,973.9885,1111.44,972.3999" style="stroke:#181818;stroke-width:1;"/></g><!--reverse link DefenseProcess to Commission--><g class="link" data-entity-1="ent0004" data-entity-2="ent0009" data-link-type="composition" data-source-line="157" id="lnk17"><path codeLine="157" d="M824.8949,1009.0635 C796.6449,1077.5635 774.17,1132.0799 756.25,1175.5399" fill="none" id="DefenseProcess-backto-Commission" style="stroke:#181818;stroke-width:1;"/><polygon fill="#181818" points="829.47,997.9699,823.4846,1001.9917,824.8949,1009.0635,830.8803,1005.0418,829.47,997.9699" style="stroke:#181818;stroke-width:1;"/></g><!--reverse link DiplomaProject to Theme--><g class="link" data-entity-1="ent0006" data-entity-2="ent0010" data-link-type="composition" data-source-line="159" id="lnk18"><path codeLine="159" d="M571.4695,1373.947 C578.7095,1379.947 576.97,1377.8499 584.7,1382.7999 C686.74,1448.1499 821.21,1480.9299 921.7,1497.1999" fill="none" id="DiplomaProject-backto-Theme" style="stroke:#181818;stroke-width:1;"/><polygon fill="#181818" points="562.23,1366.2899,564.2974,1373.1983,571.4695,1373.947,569.4021,1367.0386,562.23,1366.2899" style="stroke:#181818;stroke-width:1;"/></g><!--link SessionService to Student--><g class="link" data-entity-1="ent0003" data-entity-2="ent0005" data-link-type="dependency" data-source-line="161" id="lnk19"><path codeLine="161" d="M611.32,274.0999 C534.29,306.5999 458.71,351.4199 402.7,412.9999 C234.4,598.0199 182.5283,888.9141 166.3383,1068.6341" fill="none" id="SessionService-to-Student" style="stroke:#181818;stroke-width:1;stroke-dasharray:7,7;"/><polygon fill="#181818" points="165.8,1074.6099,170.5914,1066.0051,166.2486,1069.6301,162.6236,1065.2873,165.8,1074.6099" style="stroke:#181818;stroke-width:1;"/><text fill="#000000" font-family="sans-serif" font-size="13" lengthAdjust="spacing" textLength="42.627" x="403.7" y="709.9769">creates</text></g><!--link SessionService to DiplomaProject--><g class="link" data-entity-1="ent0003" data-entity-2="ent0006" data-link-type="dependency" data-source-line="162" id="lnk20"><path codeLine="162" d="M683.44,336.4699 C657.29,359.2699 633.52,384.7799 614.7,412.9999 C476.47,620.2299 452.9061,913.14 452.1561,1085.41" fill="none" id="SessionService-to-DiplomaProject" style="stroke:#181818;stroke-width:1;stroke-dasharray:7,7;"/><polygon fill="#181818" points="452.13,1091.4099,456.1691,1082.4274,452.1518,1086.41,448.1692,1082.3926,452.13,1091.4099" style="stroke:#181818;stroke-width:1;"/><text fill="#000000" font-family="sans-serif" font-size="13" lengthAdjust="spacing" textLength="42.627" x="615.7" y="709.9769">creates</text></g><!--link SessionService to Presentation--><g class="link" data-entity-1="ent0003" data-entity-2="ent0007" data-link-type="dependency" data-source-line="163" id="lnk21"><path codeLine="163" d="M1087.16,336.4799 C1103.81,360.5499 1118.51,386.3899 1128.7,412.9999 C1228.2,672.9099 1199.3097,1007.9321 1180.1297,1152.3921" fill="none" id="SessionService-to-Presentation" style="stroke:#181818;stroke-width:1;stroke-dasharray:7,7;"/><polygon fill="#181818" points="1179.34,1158.3399,1184.4897,1149.9447,1179.9981,1153.3834,1176.5593,1148.8918,1179.34,1158.3399" style="stroke:#181818;stroke-width:1;"/><text fill="#000000" font-family="sans-serif" font-size="13" lengthAdjust="spacing" textLength="42.627" x="1199.88" y="709.9769">creates</text></g><!--link SessionService to ScientificSupervisor--><g class="link" data-entity-1="ent0003" data-entity-2="ent0008" data-link-type="dependency" data-source-line="164" id="lnk22"><path codeLine="164" d="M1182.46,336.3999 C1208.1,359.5799 1231.74,385.1999 1250.7,412.9999 C1405.49,640.0099 1448.9487,966.3177 1461.3687,1127.3677" fill="none" id="SessionService-to-ScientificSupervisor" style="stroke:#181818;stroke-width:1;stroke-dasharray:7,7;"/><polygon fill="#181818" points="1461.83,1133.3499,1465.1261,1124.069,1461.4455,1128.3647,1457.1498,1124.6841,1461.83,1133.3499" style="stroke:#181818;stroke-width:1;"/><text fill="#000000" font-family="sans-serif" font-size="13" lengthAdjust="spacing" textLength="42.627" x="1447.11" y="709.9769">creates</text></g><!--link SessionService to Commission--><g class="link" data-entity-1="ent0003" data-entity-2="ent0009" data-link-type="dependency" data-source-line="165" id="lnk23"><path codeLine="165" d="M773.73,336.1999 C754.66,359.7999 738.07,385.5899 726.7,412.9999 C615.6,680.8799 686.1153,1036.4065 719.1953,1169.7465" fill="none" id="SessionService-to-Commission" style="stroke:#181818;stroke-width:1;stroke-dasharray:7,7;"/><polygon fill="#181818" points="720.64,1175.5699,722.3552,1165.8716,719.4361,1170.717,714.5906,1167.7979,720.64,1175.5699" style="stroke:#181818;stroke-width:1;"/><text fill="#000000" font-family="sans-serif" font-size="13" lengthAdjust="spacing" textLength="42.627" x="727.7" y="709.9769">creates</text></g><!--link SessionService to Theme--><g class="link" data-entity-1="ent0003" data-entity-2="ent0010" data-link-type="dependency" data-source-line="166" id="lnk24"><path codeLine="166" d="M1285.95,268.1199 C1365.33,300.8299 1442.73,347.2599 1497.7,412.9999 C1690.42,643.5099 1604.87,775.9299 1635.7,1074.7999 C1649.74,1210.9699 1721.1,1275.8199 1635.7,1382.7999 C1582.85,1449.0099 1363.0551,1483.4234 1211.4651,1499.8534" fill="none" id="SessionService-to-Theme" style="stroke:#181818;stroke-width:1;stroke-dasharray:7,7;"/><polygon fill="#181818" points="1205.5,1500.4999,1214.8786,1503.5069,1210.4709,1499.9612,1214.0166,1495.5534,1205.5,1500.4999" style="stroke:#181818;stroke-width:1;"/><text fill="#000000" font-family="sans-serif" font-size="13" lengthAdjust="spacing" textLength="42.627" x="1633.63" y="1040.8769">creates</text></g><?plantuml-src hLTjRzis4FwkNq7qaxFCMR9XNmIqW6QhZJ35yIntRL0K0YrTOgxKoqWwMVRottSaHLcILISPzaMMxfwx8--UEzAAAGvapcfU5PJCuHPA2IHXnOvJLGao9U-lOZBZL4f4qJj12y_RiXm85BLw90KK6n3IarzOMLFKaanZ0wK4s-mKH5bL9knF8EUU1-MkS24IHU-0_EKHibo5os0LhAFh1Nwjmb-ZnBrUXi4g2M9yduTlmqKIubkmNeV9si7VHeiekGpdtZ-UPmAJ1AHa61F4FSjiXDDWfk7fPHWlVPApJ7sIIdnByF4PrTEfVgIffFSWqvm9doofsbfXBQeCFVfktKlxJVucYwg4nf1NoYUiL1sfzdcwfT9udRI84vzigefhfLHKgBI4XxrMBscNGubYMe1FcbLQ4Ug1StO7PGOE3P1t0vFNvkTak5eTZbSqxwtZ46AMUjBk_lGEL8ghL3kffVkysO3uYa-zcyyEJEyfutJ38QMPmY8OEywaiTkZZ2v58F19yv5LkTtlYNaEe5lWzH5a3UAs4aM37WCsLJbbChrb9PDRo2Uk52rp1XKspBaAFgRpuCOc-JNv_aSdVBSAvg4JNvntM1O7FuLnSendjg0-IUoBbUQs1JNXVeCCjKrFBkstOoD8jA1wWrYdpbVZEcCeOBSiI-MkrYqWAwHpqegJLceDigeec6aOdypQTwjJLKuVpHRTkh5b_Lu3Due13QrK0CRHXQWnkHfWYE3uedTi7RNwfZ5GWpMYFCLPaqCtVbQ9_VVqlz3fINwE4UIbdV1yEcPRMjv1YccUTAIgIdM4VgHgerbW_D-Agh28d2ew0XfhxePy3vNuak9gr1OaavseKyqj7E20qmodUr-5F5Cz0T8kHtwO6kC0wwbscuAf53E04qlMO9FGzxO5Ah3m3G7wvcOgZcdQj2e5qfA-rU-dlssffdcZHOf71Vu4hbFFNVyEv1VdhIPO91_2LPhy7CMnK_zW-ZkEhp-4ypHQhCCuZjw5YnbE0BMhENmouzWzkitU3dBxUJ34szOgaFCT2Itb0uWKZrNE3pcllKxwtEvwrYfhqZ1N7AWxbatmWL5t0HrLGrbdamDNr9qeVKZFmG5kFtLxOsvVkELiVL2qZimL396_l0_YQ7rpW1x8hOMhIvqfFVngpkmiRHF_-uwYh3lti5Tq3TVwfrU5lez1_Xe_0wdnDLO-gp3Uu8--NPFFJgGZMNTXlvxmxgdnmdG_aRod4_EChUnRUUJGQgvpBsd45XrVtmInfiF_qh6yUgIyGvD1QuvtfPCsnYXeTxi_VFjxVEwglxgUaLY6oVqmi-khEFmOlJmzUyO-QqeT4XnNDRYoLzCfUNL-TdRnQdWbyqb1IxnsI6-Wc4xVzFzO-2JR2Q5F0dDhyOO6ts0CT_qQKGtkNYE8tjrhpFdObMi4rxbqUODHgDLsw0mpT7RsfZtfSAS2A1w9Ow21nwFOtbmuYXpjpACM7NOVnLbc7j_Ia1BwZutyplnvy_u5?></g></svg>