<?plantuml 1.2026.1?><svg xmlns="http://www.w3.org/2000/svg" xmlns:xlink="http://www.w3.org/1999/xlink" contentStyleType="text/css" data-diagram-type="STATE" height="696px" preserveAspectRatio="none" style="width:1679px;height:696px;background:#FFFFFF;" version="1.1" viewBox="0 0 1679 696" width="1679px" zoomAndPan="magnify"><title>DefenseProcess - UML State Diagram</title><defs/><g><g class="title" data-source-line="1"><text fill="#000000" font-family="sans-serif" font-size="14" font-weight="bold" lengthAdjust="spacing" textLength="249.731" x="707.8595" y="23.0059">DefenseProcess - UML State Diagram</text></g><rect fill="#F1F1F1" height="40" rx="12.5" ry="12.5" style="stroke:#181818;stroke-width:0.5;" width="82.3657" x="1337.27" y="194.6999"/><text fill="#000000" font-family="sans-serif" font-size="14" lengthAdjust="spacing" textLength="72.3657" x="1342.27" y="219.3059">Preparation</text><rect fill="#F1F1F1" height="40" rx="12.5" ry="12.5" style="stroke:#181818;stroke-width:0.5;" width="63.6758" x="939.61" y="59.9999"/><text fill="#000000" font-family="sans-serif" font-size="14" lengthAdjust="spacing" textLength="53.6758" x="944.61" y="84.6059">Revision</text><rect fill="#F1F1F1" height="40" rx="12.5" ry="12.5" style="stroke:#181818;stroke-width:0.5;" width="73.7977" x="555.55" y="194.6999"/><text fill="#000000" font-family="sans-serif" font-size="14" lengthAdjust="spacing" textLength="63.7977" x="560.55" y="219.3059">Rehearsal</text><rect fill="#F1F1F1" height="40" rx="12.5" ry="12.5" style="stroke:#181818;stroke-width:0.5;" width="62.1358" x="425.38" y="314.6999"/><text fill="#000000" font-family="sans-serif" font-size="14" lengthAdjust="spacing" textLength="52.1358" x="430.38" y="339.3059">Defense</text><rect fill="#F1F1F1" height="40" rx="12.5" ry="12.5" style="stroke:#181818;stroke-width:0.5;" width="76.1497" x="640.38" y="449.7999"/><text fill="#000000" font-family="sans-serif" font-size="14" lengthAdjust="spacing" textLength="66.1497" x="645.38" y="474.4059">Attestation</text><rect fill="#F1F1F1" height="40" rx="12.5" ry="12.5" style="stroke:#181818;stroke-width:0.5;" width="62.9058" x="7" y="567.3999"/><text fill="#000000" font-family="sans-serif" font-size="14" lengthAdjust="spacing" textLength="52.9058" x="12" y="592.0059">Finished</text><ellipse cx="1663.45" cy="79.9999" fill="#222222" rx="10" ry="10" style="stroke:#222222;stroke-width:1;"/><ellipse cx="38.45" cy="679.3999" fill="none" rx="11" ry="11" style="stroke:#222222;stroke-width:1;"/><ellipse cx="38.45" cy="679.3999" fill="#222222" rx="6" ry="6" style="stroke:#222222;stroke-width:1;"/><g class="entity" data-qualified-name="GMN2" data-source-line="36" id="ent0003"><path d="M1306.44,43.7999 L1306.44,75.9999 L1003.52,79.9999 L1306.44,83.9999 L1306.44,116.2 A0,0 0 0 0 1306.44,116.2 L1478.4612,116.2 A0,0 0 0 0 1478.4612,116.2 L1478.4612,53.7999 L1468.4612,43.7999 L1306.44,43.7999 A0,0 0 0 0 1306.44,43.7999" fill="#FEFFDD" style="stroke:#181818;stroke-width:0.5;"/><path d="M1468.4612,43.7999 L1468.4612,53.7999 L1478.4612,53.7999 L1468.4612,43.7999" fill="#FEFFDD" style="stroke:#181818;stroke-width:0.5;"/><text fill="#000000" font-family="sans-serif" font-size="13" lengthAdjust="spacing" textLength="151.0212" x="1312.44" y="60.8769">idx mapping used in code:</text><text fill="#000000" font-family="sans-serif" font-size="13" lengthAdjust="spacing" textLength="97.1881" x="1312.44" y="76.477">- day 6,7 -&gt; idx 0</text><text fill="#000000" font-family="sans-serif" font-size="13" lengthAdjust="spacing" textLength="111.6441" x="1312.44" y="92.077">- day 12,13 -&gt; idx 1</text><text fill="#000000" font-family="sans-serif" font-size="13" lengthAdjust="spacing" textLength="93.5741" x="1312.44" y="107.677">- day 18 -&gt; idx 2</text></g><g class="entity" data-qualified-name="GMN5" data-source-line="43" id="ent0006"><path d="M144.09,449.1999 L144.09,490.4 L402.8082,490.4 L402.8082,459.1999 L392.8082,449.1999 L144.09,449.1999" fill="#FEFFDD" style="stroke:#181818;stroke-width:0.5;"/><path d="M392.8082,449.1999 L392.8082,459.1999 L402.8082,459.1999 L392.8082,449.1999" fill="#FEFFDD" style="stroke:#181818;stroke-width:1;"/><text fill="#000000" font-family="sans-serif" font-size="13" lengthAdjust="spacing" textLength="237.7182" x="150.09" y="466.2769">change_day also forces stage DEFENSE</text><text fill="#000000" font-family="sans-serif" font-size="13" lengthAdjust="spacing" textLength="202.3322" x="150.09" y="481.877">at day 23 or 24 before final checks.</text></g><!--link *start* to Preparation--><g class="link" data-entity-1="ent0002" data-entity-2="ent0002" data-link-type="dependency" data-source-line="5" id="lnk3"><path d="M1663.91,90.4899 C1664.19,107.6799 1662.11,143.9799 1641.45,163.1999 C1609.89,192.5799 1491.9621,205.4367 1426.1021,210.5367" fill="none" id="*start*-to-Preparation" style="stroke:#181818;stroke-width:1;"/><polygon fill="#181818" points="1420.12,210.9999,1429.402,214.2931,1425.1051,210.6139,1428.7843,206.317,1420.12,210.9999" style="stroke:#181818;stroke-width:1;"/></g><!--link Preparation to Preparation--><g class="link" data-entity-1="ent0002" data-entity-2="ent0002" data-link-type="dependency" data-source-line="14" id="lnk4"><path d="M1419.99,203.6299 C1438.57,202.5699 1454.64,206.2599 1454.64,214.6999 C1454.64,223.1399 1444.5603,227.1717 1425.9803,226.1117" fill="none" id="Preparation-to-Preparation" style="stroke:#181818;stroke-width:1;"/><polygon fill="#181818" points="1419.99,225.7699,1428.7476,230.2761,1424.9819,226.0547,1429.2032,222.289,1419.99,225.7699" style="stroke:#181818;stroke-width:1;"/><text fill="#000000" font-family="sans-serif" font-size="13" lengthAdjust="spacing" textLength="184.9512" x="1460.64" y="211.2769">work_thesis / rest / send_review</text><text fill="#000000" font-family="sans-serif" font-size="13" lengthAdjust="spacing" textLength="120.6921" x="1492.7695" y="226.877">change_day [default]</text></g><!--link Preparation to Revision--><g class="link" data-entity-1="ent0002" data-entity-2="ent0003" data-link-type="dependency" data-source-line="15" id="lnk5"><path d="M1401.94,194.4099 C1416.46,180.1899 1430.11,160.8399 1417.45,146.1999 C1403.81,130.4199 1109.3829,96.3557 1009.4329,85.1957" fill="none" id="Preparation-to-Revision" style="stroke:#181818;stroke-width:1;"/><polygon fill="#181818" points="1003.47,84.5299,1011.9706,89.5039,1008.4391,85.0848,1012.8583,81.5533,1003.47,84.5299" style="stroke:#181818;stroke-width:1;"/><text fill="#000000" font-family="sans-serif" font-size="13" lengthAdjust="spacing" textLength="182.8582" x="1423.45" y="159.2769">change_day [today in {5,11,16}]</text></g><!--link Revision to Preparation--><g class="link" data-entity-1="ent0003" data-entity-2="ent0002" data-link-type="dependency" data-source-line="19" id="lnk8"><path d="M977.96,100.4499 C985.48,119.7199 999.81,148.4199 1022.45,163.1999 C1073.62,196.5899 1248.6961,208.1686 1331.0861,211.8986" fill="none" id="Revision-to-Preparation" style="stroke:#181818;stroke-width:1;"/><polygon fill="#181818" points="1337.08,212.1699,1328.2701,207.767,1332.0851,211.9438,1327.9083,215.7588,1337.08,212.1699" style="stroke:#181818;stroke-width:1;"/><text fill="#000000" font-family="sans-serif" font-size="13" lengthAdjust="spacing" textLength="385.1906" x="1023.45" y="159.2769">change_day [today in {6,7,12,13} and revision_passed[idx] == true]</text></g><!--link Preparation to Attestation--><g class="link" data-entity-1="ent0002" data-entity-2="ent0006" data-link-type="dependency" data-source-line="16" id="lnk6"><path d="M1350.33,235.0599 C1289.18,276.1499 1138.28,372.1499 997.45,419.1999 C899.77,451.8299 783.9583,462.7957 722.9883,466.6057" fill="none" id="Preparation-to-Attestation" style="stroke:#181818;stroke-width:1;"/><polygon fill="#181818" points="717,466.9799,726.232,470.4108,721.9903,466.6681,725.733,462.4264,717,466.9799" style="stroke:#181818;stroke-width:1;"/><text fill="#000000" font-family="sans-serif" font-size="13" lengthAdjust="spacing" textLength="150.3322" x="1221.85" y="339.2769">change_day [today == 25]</text></g><!--link Revision to Revision--><g class="link" data-entity-1="ent0003" data-entity-2="ent0003" data-link-type="dependency" data-source-line="18" id="lnk7"><path d="M1003.78,66.6599 C1021.74,64.1699 1038.29,68.6199 1038.29,79.9999 C1038.29,91.3799 1027.6832,96.6539 1009.7232,94.1639" fill="none" id="Revision-to-Revision" style="stroke:#181818;stroke-width:1;"/><polygon fill="#181818" points="1003.78,93.3399,1012.1454,98.538,1008.7326,94.0266,1013.244,90.6138,1003.78,93.3399" style="stroke:#181818;stroke-width:1;"/><text fill="#000000" font-family="sans-serif" font-size="13" lengthAdjust="spacing" textLength="238.4202" x="1044.29" y="76.5769">work_thesis / rest / submit_for_inspection</text><text fill="#000000" font-family="sans-serif" font-size="13" lengthAdjust="spacing" textLength="120.6921" x="1103.154" y="92.177">change_day [default]</text></g><!--link Revision to Rehearsal--><g class="link" data-entity-1="ent0003" data-entity-2="ent0004" data-link-type="dependency" data-source-line="20" id="lnk9"><path d="M939.15,81.4199 C855.33,83.2499 634.25,93.1099 589.45,146.1999 C578.41,159.2899 579.3055,173.6268 583.5155,188.4968" fill="none" id="Revision-to-Rehearsal" style="stroke:#181818;stroke-width:1;"/><polygon fill="#181818" points="585.15,194.2699,586.547,184.5207,583.7879,189.459,578.8496,186.7,585.15,194.2699" style="stroke:#181818;stroke-width:1;"/><text fill="#000000" font-family="sans-serif" font-size="13" lengthAdjust="spacing" textLength="354.1205" x="590.45" y="159.2769">change_day [today in {17,18} and revision_passed[2] == true]</text></g><!--link Revision to Finished--><g class="link" data-entity-1="ent0003" data-entity-2="ent0007" data-link-type="dependency" data-source-line="21" id="lnk10"><path d="M939.17,81.9799 C771.69,87.4499 9.45,117.6499 9.45,213.6999 C9.45,213.6999 9.45,213.6999 9.45,470.7999 C9.45,505.5599 19.8124,538.8698 28.4024,561.5198" fill="none" id="Revision-to-Finished" style="stroke:#181818;stroke-width:1;"/><polygon fill="#181818" points="30.53,567.1299,31.0786,557.2964,28.757,562.4548,23.5985,560.1332,30.53,567.1299" style="stroke:#181818;stroke-width:1;"/><text fill="#000000" font-family="sans-serif" font-size="13" lengthAdjust="spacing" textLength="379.4056" x="10.45" y="339.2769">change_day [today in {7,13,18} and revision_passed[idx] == false]</text></g><!--link Revision to Attestation--><g class="link" data-entity-1="ent0003" data-entity-2="ent0006" data-link-type="dependency" data-source-line="22" id="lnk11"><path d="M973.48,100.3899 C977.49,148.9899 981.32,277.6499 920.45,356.1999 C869.5,421.9499 776.8918,449.6161 722.5918,461.0261" fill="none" id="Revision-to-Attestation" style="stroke:#181818;stroke-width:1;"/><polygon fill="#181818" points="716.72,462.2599,726.3502,464.3237,721.6131,461.2317,724.7051,456.4947,716.72,462.2599" style="stroke:#181818;stroke-width:1;"/><text fill="#000000" font-family="sans-serif" font-size="13" lengthAdjust="spacing" textLength="150.3322" x="962.7" y="279.2769">change_day [today == 25]</text></g><!--link Rehearsal to Rehearsal--><g class="link" data-entity-1="ent0004" data-entity-2="ent0004" data-link-type="dependency" data-source-line="24" id="lnk12"><path d="M629.81,203.7499 C648.11,202.3199 664.35,205.9699 664.35,214.6999 C664.35,223.4299 654.0918,227.5474 635.7918,226.1174" fill="none" id="Rehearsal-to-Rehearsal" style="stroke:#181818;stroke-width:1;"/><polygon fill="#181818" points="629.81,225.6499,638.471,230.3389,634.7948,226.0394,639.0943,222.3632,629.81,225.6499" style="stroke:#181818;stroke-width:1;"/><text fill="#000000" font-family="sans-serif" font-size="13" lengthAdjust="spacing" textLength="179.9072" x="670.35" y="211.2769">prepare_slides / rest / rehearse</text><text fill="#000000" font-family="sans-serif" font-size="13" lengthAdjust="spacing" textLength="120.6921" x="699.9575" y="226.877">change_day [default]</text></g><!--link Rehearsal to Defense--><g class="link" data-entity-1="ent0004" data-entity-2="ent0005" data-link-type="dependency" data-source-line="25" id="lnk13"><path d="M570,235.1899 C544.65,257.1799 508.2017,288.7975 483.0217,310.6475" fill="none" id="Rehearsal-to-Defense" style="stroke:#181818;stroke-width:1;"/><polygon fill="#181818" points="478.49,314.5799,487.9091,311.7025,482.2664,311.3029,482.666,305.6602,478.49,314.5799" style="stroke:#181818;stroke-width:1;"/><text fill="#000000" font-family="sans-serif" font-size="13" lengthAdjust="spacing" textLength="172.0162" x="533.6" y="279.2769">change_day [today in {23,24}]</text></g><!--link Rehearsal to Attestation--><g class="link" data-entity-1="ent0004" data-entity-2="ent0006" data-link-type="dependency" data-source-line="26" id="lnk14"><path d="M629.7,221.8899 C656.99,228.3499 692.89,241.1999 714.45,266.1999 C759.71,318.6799 775.41,357.2099 744.45,419.1999 C738.31,431.5099 732.4104,438.1263 721.2904,445.8863" fill="none" id="Rehearsal-to-Attestation" style="stroke:#181818;stroke-width:1;"/><polygon fill="#181818" points="716.37,449.3199,726.0397,447.4497,720.4703,446.4586,721.4615,440.8892,716.37,449.3199" style="stroke:#181818;stroke-width:1;"/><text fill="#000000" font-family="sans-serif" font-size="13" lengthAdjust="spacing" textLength="150.3322" x="761.41" y="339.2769">change_day [today == 25]</text></g><!--link Defense to Defense--><g class="link" data-entity-1="ent0005" data-entity-2="ent0005" data-link-type="dependency" data-source-line="28" id="lnk15"><path d="M487.72,324.0699 C505.74,321.8999 522.52,325.4399 522.52,334.6999 C522.52,343.9599 511.697,348.2173 493.677,346.0473" fill="none" id="Defense-to-Defense" style="stroke:#181818;stroke-width:1;"/><polygon fill="#181818" points="487.72,345.3299,496.1772,350.3773,492.6841,345.9277,497.1337,342.4346,487.72,345.3299" style="stroke:#181818;stroke-width:1;"/><text fill="#000000" font-family="sans-serif" font-size="13" lengthAdjust="spacing" textLength="179.9072" x="528.52" y="331.2769">prepare_slides / rest / rehearse</text><text fill="#000000" font-family="sans-serif" font-size="13" lengthAdjust="spacing" textLength="120.6921" x="558.1275" y="346.877">change_day [default]</text></g><!--link Defense to Attestation--><g class="link" data-entity-1="ent0005" data-entity-2="ent0006" data-link-type="dependency" data-source-line="29" id="lnk16"><path d="M425.09,347.0699 C388.13,360.6199 331.34,381.9499 328.45,386.1999 C320.2,398.3299 318.84,408.1299 328.45,419.1999 C348.7,442.5099 547.4259,459.3927 634.0659,465.7227" fill="none" id="Defense-to-Attestation" style="stroke:#181818;stroke-width:1;"/><polygon fill="#181818" points="640.05,466.1599,631.3654,461.5148,635.0633,465.7956,630.7825,469.4935,640.05,466.1599" style="stroke:#181818;stroke-width:1;"/><text fill="#000000" font-family="sans-serif" font-size="13" lengthAdjust="spacing" textLength="218.5952" x="329.45" y="399.2769">defense (sets defense_passed = true)</text><text fill="#000000" font-family="sans-serif" font-size="13" lengthAdjust="spacing" textLength="70.8241" x="403.3356" y="414.877">change_day</text></g><!--link Defense to Attestation--><g class="link" data-entity-1="ent0005" data-entity-2="ent0006" data-link-type="dependency" data-source-line="30" id="lnk17"><path d="M487.89,349.6999 C507.23,358.9199 532.12,371.8999 552.45,386.1999 C570.2,398.6899 570.82,406.5399 588.45,419.1999 C604.54,430.7499 618.2742,438.8275 634.7042,447.4275" fill="none" id="Defense-to-Attestation-1" style="stroke:#181818;stroke-width:1;"/><polygon fill="#181818" points="640.02,450.2099,633.9013,442.4923,635.5902,447.8912,630.1913,449.5801,640.02,450.2099" style="stroke:#181818;stroke-width:1;"/><text fill="#000000" font-family="sans-serif" font-size="13" lengthAdjust="spacing" textLength="150.3322" x="589.45" y="407.2769">change_day [today == 25]</text></g><!--link Attestation to Finished--><g class="link" data-entity-1="ent0006" data-entity-2="ent0007" data-link-type="dependency" data-source-line="32" id="lnk18"><path d="M640.33,477.6899 C524.35,498.6299 183.0345,560.2834 76.0745,579.6034" fill="none" id="Attestation-to-Finished" style="stroke:#181818;stroke-width:1;"/><polygon fill="#181818" points="70.17,580.6699,79.7377,583.0065,75.0904,579.7812,78.3157,575.1339,70.17,580.6699" style="stroke:#181818;stroke-width:1;"/><text fill="#000000" font-family="sans-serif" font-size="13" lengthAdjust="spacing" textLength="141.6481" x="397.77" y="533.4769">attestation / change_day</text></g><!--link Finished to *end*--><g class="link" data-entity-1="ent0007" data-entity-2="ent0019" data-link-type="dependency" data-source-line="33" id="lnk20"><path d="M38.45,607.4899 C38.45,626.0599 38.45,647.5699 38.45,662.2699" fill="none" id="Finished-to-*end*" style="stroke:#181818;stroke-width:1;"/><polygon fill="#181818" points="38.45,668.2699,42.45,659.2699,38.45,663.2699,34.45,659.2699,38.45,668.2699" style="stroke:#181818;stroke-width:1;"/></g><!--link Defense to GMN5--><g class="link" data-entity-1="ent0005" data-entity-2="ent0006" data-link-type="association" data-source-line="43" id="lnk7"><path d="M424.96,347.1999 C416.39,350.2199 407.09,353.4199 398.45,356.1999 C353.07,370.8199 328.78,352.0999 295.45,386.1999 C279.17,402.8599 274.58,430.1599 273.47,448.7699" fill="none" id="Defense-GMN5" style="stroke:#181818;stroke-width:1;stroke-dasharray:7,7;"/></g><?plantuml-src dPHHRzCm4CVV_Idk4L3AIBgDQTAGaEYU04rCUofHvCQNn5fYHxRBc52_E-SsRjsiGHDFYSztl_kVppudNOlm1IjK5k-CBj5QcC73jwzmxxYZBSbhmpl66YaGiElTCmYqfP6zarenjdoNmsps2UuCzjpmdT5kOsFJpl83VqaRBnlanl9sM0ywXjLdvz3_7VnlfPAsGS5OX1vdXsjuqkQnS0rQQU4C357eOr69mf00VFgfoeQh6Wl1ds4fiEBhrkKle44j4MD_f_r7AlXpaQHfabvkNeP6saz6tzn0Tf4pjaynodUwWlMgawwej2caiZsM7ZzHon7u-7HErtAPV4pIB4dd6-1AW1dYYvvRYs8fnU_SgtPcZVbOzj35INPAwAlJt6oA6dez2INcV18Rv5QyjMFowtiJwXfNsM_F4mlRqgE86cHsFZZPanWuNFR9-h9vafrlnb6l5H_envd-KtWCEnOWXfqt5fqDgw49iElhsnZw3zHqBR7Vw6hmQEiiGh2zZm-W6SMOqZH1ZAmR1xewJ280kYlGyRwNgeQrrqsdNsg1rxGt0o-4tWOGnZj-s1ktZoMOquFvAjWoHXC7VDeX-KexfpkVFGmwYAkcgwg17ZVDOA2QQfg7Yzl5z_i5kN6tXMTpq0QoSrWXEI9KKj6zA1ii7-txGxg_?></g></svg>